<svg viewBox="0 0 175 59" fill="currentColor" xmlns="http://www.w3.org/2000/svg"><path d="M74.4716 30.2568C74.4716 38.4463 68.0442 44.481 60.1563 44.481C52.2685 44.481 45.8411 38.4463 45.8411 30.2568C45.8411 22.0097 52.2685 16.0327 60.1563 16.0327C68.0442 16.0327 74.4716 22.0097 74.4716 30.2568ZM68.205 30.2568C68.205 25.1392 64.4798 21.6377 60.1563 21.6377C55.8328 21.6377 52.1076 25.1392 52.1076 30.2568C52.1076 35.3232 55.8328 38.876 60.1563 38.876C64.4798 38.876 68.205 35.3167 68.205 30.2568Z" fill="currentColor"/><path d="M105.354 30.2568C105.354 38.4463 98.9265 44.481 91.0386 44.481C83.1508 44.481 76.7234 38.4463 76.7234 30.2568C76.7234 22.0161 83.1508 16.0327 91.0386 16.0327C98.9265 16.0327 105.354 22.0097 105.354 30.2568ZM99.0874 30.2568C99.0874 25.1392 95.3622 21.6377 91.0386 21.6377C86.7151 21.6377 82.9899 25.1392 82.9899 30.2568C82.9899 35.3232 86.7151 38.876 91.0386 38.876C95.3622 38.876 99.0874 35.3167 99.0874 30.2568Z" fill="currentColor"/><path d="M134.949 16.8921V42.4288C134.949 52.9334 128.734 57.2237 121.387 57.2237C114.471 57.2237 110.308 52.6127 108.738 48.8418L114.194 46.578C115.165 48.8931 117.546 51.6251 121.38 51.6251C126.084 51.6251 128.998 48.7328 128.998 43.2882V41.2424H128.779C127.377 42.9675 124.675 44.4746 121.265 44.4746C114.13 44.4746 107.593 38.2796 107.593 30.3081C107.593 22.279 114.13 16.0327 121.265 16.0327C124.668 16.0327 127.37 17.5398 128.779 19.2136H128.998V16.8985H134.949V16.8921ZM129.442 30.3081C129.442 25.2996 126.09 21.6377 121.824 21.6377C117.501 21.6377 113.879 25.2996 113.879 30.3081C113.879 35.2654 117.501 38.876 121.824 38.876C126.09 38.876 129.442 35.2654 129.442 30.3081Z" fill="currentColor"/><path d="M144.761 1.92383V43.6086H138.649V1.92383H144.761Z" fill="currentColor"/><path d="M168.579 34.9382L173.443 38.1704C171.873 40.4855 168.09 44.4744 161.553 44.4744C153.447 44.4744 147.392 38.2281 147.392 30.2503C147.392 21.7914 153.498 16.0261 160.852 16.0261C168.257 16.0261 171.879 21.9005 173.063 25.0749L173.713 26.691L154.637 34.5662C156.097 37.42 158.368 38.8758 161.553 38.8758C164.744 38.8758 166.958 37.311 168.579 34.9382ZM153.607 29.8206L166.359 24.5426C165.658 22.7662 163.548 21.5285 161.064 21.5285C157.879 21.5285 153.447 24.331 153.607 29.8206V29.8206Z" fill="currentColor"/><path d="M22.705 26.5565V20.5218H43.1067C43.3061 21.5736 43.4091 22.8177 43.4091 24.1645C43.4091 28.6921 42.1674 34.2906 38.1655 38.2796C34.273 42.3198 29.2997 44.4746 22.7115 44.4746C10.5001 44.4746 0.231689 34.56 0.231689 22.388C0.231689 10.2161 10.5001 0.301514 22.7115 0.301514C29.467 0.301514 34.2795 2.94369 37.8953 6.38749L33.6232 10.6458C31.0304 8.22162 27.5175 6.33619 22.705 6.33619C13.7878 6.33619 6.81349 13.4996 6.81349 22.388C6.81349 31.2765 13.7878 38.4399 22.705 38.4399C28.489 38.4399 31.7832 36.1248 33.8935 34.0213C35.6049 32.3154 36.7308 29.8785 37.1747 26.5501L22.705 26.5565V26.5565Z" fill="currentColor"/></svg>