<svg viewBox="0 0 220 56" fill="currentColor" xmlns="http://www.w3.org/2000/svg"><path d="M70.5269 44.1002L73.2567 37.7606C76.2068 39.9619 80.1254 41.1065 84.0001 41.1065C86.8621 41.1065 88.6673 40.0059 88.6673 38.3329C88.6233 33.6663 71.5396 37.3204 71.4075 25.6097C71.3634 19.6663 76.6471 15.0876 84.1322 15.0876C88.5792 15.0876 93.0263 16.1883 96.1965 18.6977L93.6427 25.1694C90.7367 23.3204 87.1262 21.9996 83.6919 21.9996C81.3583 21.9996 79.8172 23.1002 79.8172 24.509C79.8613 29.0877 97.0771 26.5782 97.2532 37.7606C97.2532 43.8361 92.1017 48.1065 84.7046 48.1065C79.2889 48.1065 74.3135 46.8298 70.5269 44.1002Z" fill="currentColor"/><path d="M175.275 35.4713C173.91 37.8487 171.356 39.4776 168.406 39.4776C164.047 39.4776 160.525 35.9556 160.525 31.5971C160.525 27.2386 164.047 23.7166 168.406 23.7166C171.356 23.7166 173.91 25.3455 175.275 27.7229L182.804 23.5405C179.986 18.5216 174.57 15.0876 168.406 15.0876C159.292 15.0876 151.895 22.4839 151.895 31.5971C151.895 40.7103 159.292 48.1065 168.406 48.1065C174.614 48.1065 179.986 44.7166 182.804 39.6537L175.275 35.4713Z" fill="currentColor"/><path d="M110.462 1.396H101.04V47.4903H110.462V1.396Z" fill="currentColor"/><path d="M186.502 1.396V47.4903H195.925V33.6664L207.109 47.4903H219.173L204.951 31.0689L218.116 15.7482H206.58L195.925 28.4715V1.396H186.502Z" fill="currentColor"/><path d="M138.465 35.5594C137.101 37.8046 134.283 39.4776 131.112 39.4776C126.753 39.4776 123.231 35.9556 123.231 31.5971C123.231 27.2386 126.753 23.7166 131.112 23.7166C134.283 23.7166 137.101 25.4776 138.465 27.7669V35.5594ZM138.465 15.748V19.4902C136.924 16.8927 133.094 15.0876 129.087 15.0876C120.809 15.0876 114.293 22.3958 114.293 31.5531C114.293 40.7103 120.809 48.1065 129.087 48.1065C133.094 48.1065 136.924 46.3015 138.465 43.704V47.4461H147.888V15.748H138.465Z" fill="currentColor"/><path d="M12.275 35.5157C12.275 38.7295 9.67719 41.327 6.46299 41.327C3.24878 41.327 0.651001 38.7295 0.651001 35.5157C0.651001 32.3018 3.24878 29.7043 6.46299 29.7043H12.275V35.5157Z" fill="currentColor"/><path d="M15.181 35.5157C15.181 32.3018 17.7788 29.7043 20.993 29.7043C24.2072 29.7043 26.805 32.3018 26.805 35.5157V50.044C26.805 53.2578 24.2072 55.8553 20.993 55.8553C17.7788 55.8553 15.181 53.2578 15.181 50.044V35.5157Z" fill="currentColor"/><path d="M20.9929 12.1822C17.7787 12.1822 15.1809 9.58473 15.1809 6.37089C15.1809 3.15706 17.7787 0.55957 20.9929 0.55957C24.2071 0.55957 26.8049 3.15706 26.8049 6.37089V12.1822H20.9929Z" fill="currentColor"/><path d="M20.9929 15.1318C24.2071 15.1318 26.8049 17.7293 26.8049 20.9432C26.8049 24.157 24.2071 26.7545 20.9929 26.7545H6.41892C3.20472 26.7545 0.606934 24.157 0.606934 20.9432C0.606934 17.7293 3.20472 15.1318 6.41892 15.1318H20.9929Z" fill="currentColor"/><path d="M44.2849 20.9432C44.2849 17.7293 46.8827 15.1318 50.0969 15.1318C53.3111 15.1318 55.9089 17.7293 55.9089 20.9432C55.9089 24.157 53.3111 26.7545 50.0969 26.7545H44.2849V20.9432Z" fill="currentColor"/><path d="M41.379 20.9432C41.379 24.1571 38.7812 26.7545 35.567 26.7545C32.3528 26.7545 29.755 24.1571 29.755 20.9432V6.37089C29.755 3.15706 32.3528 0.55957 35.567 0.55957C38.7812 0.55957 41.379 3.15706 41.379 6.37089V20.9432Z" fill="currentColor"/><path d="M35.567 44.2327C38.7812 44.2327 41.379 46.8301 41.379 50.044C41.379 53.2578 38.7812 55.8553 35.567 55.8553C32.3528 55.8553 29.755 53.2578 29.755 50.044V44.2327H35.567Z" fill="currentColor"/><path d="M35.567 41.327C32.3528 41.327 29.755 38.7295 29.755 35.5157C29.755 32.3018 32.3528 29.7043 35.567 29.7043H50.141C53.3552 29.7043 55.953 32.3018 55.953 35.5157C55.953 38.7295 53.3552 41.327 50.141 41.327H35.567Z" fill="currentColor"/></svg>